<?xml version="1.0" encoding="utf-8"?>
<!-- Generator: Adobe Illustrator 18.1.1, SVG Export Plug-In . SVG Version: 6.00 Build 0)  -->
<svg version="1.1" id="mouseover" xmlns="http://www.w3.org/2000/svg" xmlns:xlink="http://www.w3.org/1999/xlink" x="0px" y="0px"
	 width="24px" height="24px" viewBox="0 0 24 24" style="enable-background:new 0 0 24 24;" xml:space="preserve">
<style type="text/css">
	.st0{fill-rule:evenodd;clip-rule:evenodd;}
</style>
<path d="M22.682,0H1.318C0.59,0,0,0.59,0,1.318v21.364C0,23.41,0.59,24,1.318,24h10.576v-9h-3v-3h3V9.978
	c0-4,2.375-4.978,4.525-4.978c1.401,0,2.124,0.095,2.475,0.142V8H17c-1.827,0-2,0.321-2,2.434V12h3.394l-0.5,3H15v9h7.682
	C23.41,24,24,23.41,24,22.682V1.318C24,0.59,23.41,0,22.682,0z"/>
</svg>
