<?xml version="1.0" encoding="utf-8"?>
<!-- Generator: Adobe Illustrator 18.1.1, SVG Export Plug-In . SVG Version: 6.00 Build 0)  -->
<svg version="1.1" id="mouseover" xmlns="http://www.w3.org/2000/svg" xmlns:xlink="http://www.w3.org/1999/xlink" x="0px" y="0px"
	 width="24px" height="24px" viewBox="0 0 24 24" style="enable-background:new 0 0 24 24;" xml:space="preserve">
<style type="text/css">
	.st0{fill-rule:evenodd;clip-rule:evenodd;}
</style>
<path class="st0" d="M21,9.942h-2c0.152,0.589,0.266,1.421,0.266,2.058c0,4.069-3.226,7.337-7.295,7.337
	c-4.068,0-7.366-3.298-7.366-7.367c0-0.637,0.087-1.439,0.239-2.029H3V20c0,0.508,0.491,1,1,1h16c0.509,0,1-0.492,1-1V9.942z
	 M21,3.742c0-0.407-0.393-0.8-0.8-0.8h-2.4c-0.407,0-0.8,0.393-0.8,0.8v2.4c0,0.407,0.393,0.8,0.8,0.8h2.4
	c0.407,0,0.8-0.393,0.8-0.8V3.742z M11.971,7.366c-2.543,0-4.604,2.061-4.604,4.604c0,2.543,2.061,4.605,4.604,4.605
	s4.605-2.062,4.605-4.605C16.576,9.428,14.514,7.366,11.971,7.366 M21.18,23.942H2.762C1.237,23.942,0,22.705,0,21.179V2.762
	C0,1.237,1.237,0,2.762,0H21.18c1.525,0,2.762,1.237,2.762,2.762v18.417C23.942,22.705,22.706,23.942,21.18,23.942"/>
</svg>
