<?xml version="1.0" encoding="utf-8"?>
<!-- Generator: Adobe Illustrator 18.1.1, SVG Export Plug-In . SVG Version: 6.00 Build 0)  -->
<svg version="1.1" id="mouseover" xmlns="http://www.w3.org/2000/svg" xmlns:xlink="http://www.w3.org/1999/xlink" x="0px" y="0px"
	 width="24px" height="24px" viewBox="0 0 24 24" style="enable-background:new 0 0 24 24;" xml:space="preserve">
<style type="text/css">
	.st0{fill-rule:evenodd;clip-rule:evenodd;}
</style>
<path d="M22.223,0H1.77C0.794,0,0,0.775,0,1.73v20.538C0,23.224,0.794,24,1.77,24h20.453c0.979,0,1.775-0.776,1.775-1.732V1.73
	C23.999,0.775,23.202,0,22.223,0z M7,20H4V9h3V20z M5.501,8.087C4.345,8.087,3.412,7.152,3.412,6c0-1.152,0.932-2.087,2.089-2.087
	c1.152,0,2.087,0.935,2.087,2.087C7.588,7.152,6.653,8.087,5.501,8.087z M20,20h-3v-4.869c0-1.328-0.319-2.881-2.146-2.881
	c-1.852,0-2.854,1.292-2.854,2.786V20H9V9h3v2.755C12,10.855,13.567,9,15.708,9C19.311,9,20,11.335,20,14.419V20z"/>
</svg>
