<svg id="Ebene_1" data-name="Ebene 1" xmlns="http://www.w3.org/2000/svg" width="98.84" height="49.42" viewBox="-49.42 0 98.84 49.42"><defs><style>.cls-1{fill:#6f6f6f;}.cls-2{fill:#0066b1;}</style></defs><title>Logo_BMW</title><g id="BMW"><path class="cls-1" d="M99.33.69A24.71,24.71,0,1,0,124,25.4,24.73,24.73,0,0,0,99.33.69Zm23,24.71a23,23,0,1,1-23-23A23.06,23.06,0,0,1,122.37,25.4Z" transform="translate(-74.62 -0.69)"/><path class="cls-1" d="M99.33,10.73v.79h0A13.82,13.82,0,0,1,113.11,25.3h.79A14.53,14.53,0,0,0,99.33,10.73h0m0,28.45A13.82,13.82,0,0,1,85.55,25.4h-.79A14.71,14.71,0,0,0,99.43,40.07" transform="translate(-74.62 -0.69)"/><path id="W" class="cls-1" d="M111.24,15a14.53,14.53,0,0,0,1.09,1.28l5-3.15a12.3,12.3,0,0,1-1-1.18L113.21,14l-.19.19.19-.19,1.38-2.76-1-1-2.76,1.37-.2.2.2-.2,2.07-3.15c-.4-.29-.69-.59-1.18-1l-3.15,5c.39.3.88.79,1.28,1.08L112.82,12l.2-.1-.1.2Z" transform="translate(-74.62 -0.69)"/><path id="M" class="cls-1" d="M99.92,8.56l1.38-3.05.1-.3v.3l.1,4.13a7.42,7.42,0,0,1,1.47.2l-.19-6c-.69-.1-1.38-.1-2.07-.2L99.33,7V7L98,3.64a14.23,14.23,0,0,0-2.06.2l-.2,6c.49-.1,1-.1,1.48-.2l.09-4.13v-.3l.1.3,1.38,3.05Z" transform="translate(-74.62 -0.69)"/><path id="B_22d" class="cls-1" d="M88.9,13.39c.78-.79,1.28-1.78.49-2.76a1.67,1.67,0,0,0-1.77-.39h-.1v-.1A1.47,1.47,0,0,0,87,8.66a1.13,1.13,0,0,0-1.09-.3c-.79.1-1.28.6-2.85,2.27-.5.49-1.18,1.38-1.58,1.87l4.24,4C87.22,15.16,87.81,14.57,88.9,13.39Zm-5.52-1A31,31,0,0,1,85.55,10a2.09,2.09,0,0,1,.49-.3.43.43,0,0,1,.59.4.81.81,0,0,1-.29.78c-.5.5-2.17,2.27-2.17,2.27ZM85.06,14s1.57-1.68,2.16-2.27c.2-.19.4-.39.49-.39a.62.62,0,0,1,.59,0,.35.35,0,0,1,.2.49c-.1.2-.29.49-.39.69l-2.17,2.26Z" transform="translate(-74.62 -0.69)"/><path class="cls-2" d="M99.33,10.73V25.4H84.66A14.7,14.7,0,0,1,99.33,10.73Z" transform="translate(-74.62 -0.69)"/><path class="cls-2" d="M114,25.4A14.65,14.65,0,0,1,99.33,40.07V25.4Z" transform="translate(-74.62 -0.69)"/></g></svg>
