<svg id="Ebene_1" data-name="Ebene 1" xmlns="http://www.w3.org/2000/svg" width="125" height="50" viewBox="-19 .42 0 98.84 49.42"><defs><style>.cls-1{fill:#6f6f6f;}</style></defs><title>__Logo_Rolls-Royce</title><g id="Rolls-Royce"><path class="cls-1" d="M59,24.69a2.68,2.68,0,0,0,2.3,1.6,2.14,2.14,0,0,0,2.1-2.18v0c0-1.1-.5-1.7-2.5-3.1-1.8-1.3-2.5-2.2-2.5-3.6a2.93,2.93,0,0,1,5.7-.9l-1,.5a2,2,0,0,0-1.9-1.4,1.63,1.63,0,0,0-1.7,1.56v.14c0,.8.4,1.7,2,2.8,2.2,1.5,3,2.4,3,4a3.21,3.21,0,0,1-3.12,3.3h-.18a3.51,3.51,0,0,1-3.3-2.2ZM43.89,26V14.79h-1.2v12.3h6.1l.3-1.1Zm7.9,0V14.79h-1.3v12.3h6.1l.3-1.1Zm70.5-4.6v-1.1h-4.9V16h5.2v-1.1h-6.4v12.3h6.4l.3-1.1h-5.4v-4.7Zm-22.8,5.7v-5.5l4.3-6.7h-1.4l-3.5,5.6-3.5-5.6H94l4.3,6.7v5.5Zm-29.6-5.6v-1.1h-4v1.1Zm44.6,3.9.1-.1-.8-.7-.1.1a5.12,5.12,0,0,1-3.9,1.6,5.18,5.18,0,0,1-5.2-5.18V21a5.34,5.34,0,0,1,5.3-5.3,5,5,0,0,1,3.8,1.5l.1.1.7-.9-.1-.1a6.16,6.16,0,0,0-4.5-1.8,6.48,6.48,0,0,0-6.5,6.48v0a6.24,6.24,0,0,0,6.07,6.4h.23a6.63,6.63,0,0,0,4.75-2Zm-88.1,1.7-3.8-6.2h-3v6.2h-1.2V12.89h4.2a4,4,0,0,1,4.19,3.8,1.27,1.27,0,0,1,0,.2,3.77,3.77,0,0,1-3,3.8l4,6.4Zm-3.6-7.3a2.73,2.73,0,0,0,2.8-2.66V17a2.85,2.85,0,0,0-2.9-2.8h-3.1v5.7Zm11.65,7.6A6.26,6.26,0,0,1,28,21.27V21a6.4,6.4,0,1,1,6.4,6.4Zm0-11.7a5.11,5.11,0,0,0-5.11,5.12c0,.06,0,.12,0,.18a5.23,5.23,0,0,0,5.18,5.3h0a5.11,5.11,0,0,0,5.1-5.12V21a5.12,5.12,0,0,0-4.94-5.3Zm45.3,11.4L76,20.89H73v6.2h-1.2V12.89H76a4,4,0,0,1,4.19,3.8,1.27,1.27,0,0,1,0,.2,3.77,3.77,0,0,1-3,3.8l4,6.4ZM76,19.79a2.73,2.73,0,0,0,2.8-2.66V17a2.85,2.85,0,0,0-2.9-2.8h-3.1v5.7Zm11.7,7.6a6.26,6.26,0,0,1-6.4-6.12V21a6.4,6.4,0,1,1,6.4,6.4Zm0-11.7a5.11,5.11,0,0,0-5.11,5.12c0,.06,0,.12,0,.18a5.23,5.23,0,0,0,5.18,5.3h0A5.11,5.11,0,0,0,93,21.22V21a5.12,5.12,0,0,0-4.94-5.3Zm-38.9,18.1a2.48,2.48,0,0,0-2.5,2.46v0a2.36,2.36,0,0,0,2.21,2.5h.29a2.5,2.5,0,0,0,0-5Zm0,4.3a1.66,1.66,0,0,1-1.71-1.61,1.15,1.15,0,0,1,0-.19,1.77,1.77,0,0,1,1.7-1.8,1.65,1.65,0,0,1,1.7,1.61v.19A1.78,1.78,0,0,1,48.84,38.09ZM52,34.59h1.4v4.1h.8v-4.1h1.3v-.7H52Zm6.6-.8a2.48,2.48,0,0,0-2.5,2.46v0a2.36,2.36,0,0,0,2.21,2.5h.29a2.48,2.48,0,0,0,2.5-2.46v0a2.54,2.54,0,0,0-2.55-2.5Zm0,4.3a1.66,1.66,0,0,1-1.71-1.61,1.15,1.15,0,0,1,0-.19,1.77,1.77,0,0,1,1.7-1.8,1.65,1.65,0,0,1,1.7,1.61v.19a1.77,1.77,0,0,1-1.74,1.8h0ZM43,36.49l-1.5-2.6h-.7v4.8h.7v-3.4l1.2,2.1h.4l1.2-2.1v3.4H45v-4.8h-.5Zm41.8-.6c-.6-.4-.7-.6-.7-.9a.54.54,0,0,1,.5-.5.63.63,0,0,1,.6.5l.7-.2a1.22,1.22,0,0,0-1.3-1.1,1.14,1.14,0,0,0-1.2,1.1v.1c0,.6.4,1,1,1.4s.8.6.8,1a.53.53,0,0,1-.45.6h-.15c-.5,0-.7-.4-.8-.8l-.7.2a1.43,1.43,0,0,0,1.5,1.3A1.35,1.35,0,0,0,86,37.31v0c0-.5-.45-.8-1.25-1.4Zm-2.9-.5c0-.9-.6-1.4-1.6-1.4h-1.4v4.8h.8v-2h.6l1.2,2h.9l-1.3-2.1a1.46,1.46,0,0,0,.75-1.3Zm-1.6.7h-.7v-1.4h.6a.71.71,0,0,1,.79.61.28.28,0,0,1,0,.09c.05.1.05.7-.75.7Zm-5.1-2.2-1.9,4.8h.8l.5-1.3h1.7l.5,1.3h.8l-1.8-4.8Zm-.3,2.8.6-1.9.6,1.9Zm-9.65-1.3c0-.9-.6-1.4-1.6-1.4h-1.4v4.8H63v-2h.6l1.2,2h.9l-1.3-2.1A1.45,1.45,0,0,0,65.24,35.39Zm-1.6.7H63v-1.4h.7a.71.71,0,0,1,.79.61.28.28,0,0,1,0,.09A.77.77,0,0,1,63.64,36.09Zm7.1-1.5a2.17,2.17,0,0,1,1.3.5l.5-.5a2.35,2.35,0,0,0-1.8-.8,2.48,2.48,0,0,0-2.5,2.46v0a2.39,2.39,0,0,0,2.27,2.5h.13a2.73,2.73,0,0,0,1.9-.8l-.5-.5a1.55,1.55,0,0,1-1.3.5A1.65,1.65,0,0,1,69,36.4a1.48,1.48,0,0,1,0-.21A1.72,1.72,0,0,1,70.74,34.59ZM98,34h-1.7v4.8h1.8a2.29,2.29,0,0,0,2.3-2.28v-.12A2.43,2.43,0,0,0,98,34Zm.1,4.1h-1v-3.4h1a1.51,1.51,0,0,1,1.61,1.38,1.71,1.71,0,0,1,0,.32,1.55,1.55,0,0,1-1.39,1.69Zm-8.5-.1v-4.1h-.8v4.8h2.8V38Zm2.2-3.4h1.4v4.1H94v-4.1h1.3v-.7h-3.5Z"/></g></svg>