<svg id="Ebene_1" data-name="Ebene 1" xmlns="http://www.w3.org/2000/svg" width="97" height="50" viewBox="-17
.42 0 98.84 49.42"><defs><style>.cls-1{fill:#6f6f6f;}</style></defs><title>Logo_BMW GROUP</title><g id="MINI"><path class="cls-1" d="M46.36,29.84h-1.5v-7.9h2.3l2,6.3,2-6.3h2.3v7.9h-1.6V24l-1.7,5.8h-1.9l-1.9-5.9v5.9Zm10.4,0h-1.6v-7.9h1.6Zm3.4,0h-1.6v-7.9h1.9l3.1,5.7v-5.7h1.6v7.9h-1.9l-3.1-5.7v5.7Zm8.5,0h-1.6v-7.9h1.6Zm11.6,2.9h-7.5a14,14,0,0,0,.9-2.9h9.4l2.5-2.5H74c0-.5.1-1,.1-1.5a7.57,7.57,0,0,0-.1-1.5h14.4l2.5-2.5H73.56a14,14,0,0,0-.9-2.9h21.2l2.5-2.5h-25a17.39,17.39,0,0,0-29.4,0H17l2.5,2.5h21.2a24.69,24.69,0,0,0-1,2.9H22.36l2.5,2.5h14.4c0,.5-.1,1-.1,1.5a7.57,7.57,0,0,0,.1,1.5H27.76l2.5,2.5h9.4a14.19,14.19,0,0,0,1,2.9h-7.4l2.5,2.5h6.3a17.39,17.39,0,0,0,29.4,0h6.3Zm-23.5,8.1a14.9,14.9,0,1,1,14.9-14.9,14.94,14.94,0,0,1-14.9,14.9"/></g></svg>