<?xml version="1.0" encoding="utf-8"?>
<!-- Generator: Adobe Illustrator 18.1.1, SVG Export Plug-In . SVG Version: 6.00 Build 0)  -->
<svg version="1.1" id="mouseover" xmlns="http://www.w3.org/2000/svg" xmlns:xlink="http://www.w3.org/1999/xlink" x="0px" y="0px"
	 width="24px" height="24px" viewBox="0 0 24 24" style="enable-background:new 0 0 24 24;" xml:space="preserve">
<style type="text/css">
	.st0{fill-rule:evenodd;clip-rule:evenodd;}
</style>
<g id="Lozenge_2_">
	<g>
		<path d="M23.76,7.642c0,0-0.234-1.654-0.954-2.382c-0.913-0.956-1.936-0.961-2.405-1.017C17.043,4,12.005,4,12.005,4h-0.01
			c0,0-5.038,0-8.396,0.243C3.129,4.299,2.107,4.303,1.194,5.259C0.474,5.988,0.24,7.642,0.24,7.642S0,9.584,0,11.526v1.821
			c0,1.942,0.24,3.884,0.24,3.884s0.234,1.654,0.954,2.382c0.913,0.956,2.112,0.926,2.646,1.026C5.76,20.823,12,20.88,12,20.88
			s5.043-0.008,8.402-0.25c0.469-0.056,1.492-0.061,2.405-1.017c0.72-0.728,0.954-2.382,0.954-2.382S24,15.289,24,13.347v-1.821
			C24,9.584,23.76,7.642,23.76,7.642z M9,15.583V8.5l7.089,3.542L9,15.583z"/>
	</g>
</g>
</svg>
